<svg height="22" width="24" xmlns="http://www.w3.org/2000/svg"><mask id="a" fill="#fff"><path d="M24 0H0v21.102h24z" fill="none"/></mask><path d="M23.063 17.553H17.25v-1.314h5.811c.32 0 .562-.17.562-.47v-.938c0-.32-.242-.657-.561-.657-.02-5.82-4.687-10.738-10.688-10.926v-.526h1.312c.114 0 .188 0 .188-.094v-.75A1.881 1.881 0 0 0 11.998 0a1.882 1.882 0 0 0-1.875 1.878v.75c0 .113.094.094.188.094h1.313v.526c-6 .188-10.668 5.05-10.688 11.02a.552.552 0 0 0-.562.563v.939c0 .3.243.469.563.469H6.75v1.314H.936c-.525 0-.937.507-.937 1.014v2.44c0 .113.093.094.187.094h23.625c.113 0 .187 0 .187-.094v-2.44c0-.507-.411-1.014-.936-1.014" fill="#fff" fill-rule="evenodd" mask="url(#a)"/></svg>