<svg height="34" width="33" xmlns="http://www.w3.org/2000/svg"><mask id="a" fill="#fff"><path d="M0 34h11.675V.739H0z" fill="none"/></mask><g fill="#fff" fill-rule="evenodd"><path d="M32.35 31.708s0-9.366-.004-10.298c.004-.85-.03-21.261-.03-21.261L31.75.147s-4.631 2.144-4.63 18.045c3.557.8 2.06 3.99 1.79 4.396 0 .81.077 9.124.077 9.124l.01-.002c-.003.009-.007.016-.006.027-.005.764.75 1.384 1.678 1.378.924.002 1.682-.62 1.679-1.378.003-.007.003-.018-.003-.023zM22.138.735L21.13.734l.298 8.65-1.21-.001V.732l-.882.001V9.44h-1.003V.734h-.973l-.003 8.705h-1.186L16.51.732h-.917l-1.117 7.364s-.027.277-.027.382c0 1.136.642 2.152 1.645 2.812 3.306 3.063 1.049 6.186 1.049 6.929.003.82.003 13.465.003 13.465h.002c0 .01-.004.017-.005.03 0 .775.767 1.4 1.71 1.403.944 0 1.712-.63 1.712-1.402-.001-.013-.006-.021-.006-.021l.002-.006.003-13.443c-.003-.86-1.91-4.454 1.279-7.124l.014-.017c.778-.604 1.29-1.438 1.369-2.374.005-.066.002-.232.002-.232z"/><path d="M5.885.74V.74h-.097V.74C2.086.79 0 3.699 0 6.86c-.002 3.189 2.335 5.464 4.372 5.969 1.116 1.282.381 4.315-.408 6.064v13.657h.004a.135.135 0 0 0-.004.028c0 .785.774 1.422 1.732 1.422h.282c.957 0 1.732-.637 1.732-1.421 0-.01-.002-.02-.004-.03h.004V18.895c-.789-1.75-1.524-4.782-.409-6.065 2.038-.506 4.372-2.78 4.374-5.97 0-3.162-2.087-6.07-5.79-6.12" mask="url(#a)" transform="translate(0 -.738)"/></g></svg>